<svg width="105" height="136" viewBox="0 0 105 136" fill="none" xmlns="http://www.w3.org/2000/svg">
<path d="M36.2741 125.813C23.3645 125.813 12.8828 136.297 12.8828 149.21V178.294H36.2741V125.813Z" fill="#CC1E53"/>
<path d="M68.7259 125.813C81.6355 125.813 92.1172 136.297 92.1172 149.21V178.294H68.7259V125.813Z" fill="#CC1E53"/>
<path d="M81.1618 145.419C81.1618 129.663 68.3706 116.869 52.6184 116.869C36.9847 116.869 24.312 129.426 24.0751 145.005H23.8974V156.555H80.9841V145.36H81.1618V145.419Z" fill="#EE2761"/>
<path d="M52.5592 42.4115C64.2678 42.4115 73.7595 32.9174 73.7595 21.2057C73.7595 9.49414 64.2678 0 52.5592 0C40.8506 0 31.359 9.49414 31.359 21.2057C31.359 32.9174 40.8506 42.4115 52.5592 42.4115Z" fill="#002334"/>
<path d="M52.5592 100.283C73.8505 100.283 91.1105 83.0186 91.1105 61.7217C91.1105 40.4249 73.8505 23.1605 52.5592 23.1605C31.2679 23.1605 14.0079 40.4249 14.0079 61.7217C14.0079 83.0186 31.2679 100.283 52.5592 100.283Z" fill="#002334"/>
<path d="M29.1894 77.0745C31.9693 75.9227 33.2894 72.7348 32.1379 69.9542C30.9864 67.1736 27.7994 65.8531 25.0194 67.0049C22.2395 68.1567 20.9194 71.3446 22.0709 74.1253C23.2224 76.9059 26.4095 78.2263 29.1894 77.0745Z" fill="#79483E"/>
<path d="M80.236 77.0694C83.0159 75.9176 84.336 72.7297 83.1845 69.949C82.033 67.1684 78.8459 65.8479 76.066 66.9997C73.2861 68.1515 71.966 71.3394 73.1175 74.1201C74.269 76.9007 77.4561 78.2212 80.236 77.0694Z" fill="#79483E"/>
<path d="M52.9145 129.012C47.8809 129.012 43.7356 124.865 43.7356 119.83V101.764C43.7356 96.729 47.8809 92.5826 52.9145 92.5826C57.9481 92.5826 62.0934 96.729 62.0934 101.764V119.83C62.0934 124.865 58.0073 129.012 52.9145 129.012Z" fill="#63382F"/>
<path d="M52.9145 116.632C47.8809 116.632 43.7356 112.485 43.7356 107.45V89.384C43.7356 84.3491 47.8809 80.2028 52.9145 80.2028C57.9481 80.2028 62.0934 84.3491 62.0934 89.384V107.45C62.0934 112.544 58.0073 116.632 52.9145 116.632Z" fill="#532C24"/>
<path d="M52.5592 107.865C38.6429 107.865 27.2137 96.4328 27.2137 82.5129V67.2897C27.2137 53.3105 38.6429 41.9376 52.5592 41.9376C66.4756 41.9376 77.9048 53.3698 77.9048 67.2897V82.5129C77.9048 96.4328 66.4756 107.865 52.5592 107.865Z" fill="#A16356"/>
<path d="M52.5592 98.7429C38.6429 98.7429 27.2137 87.3108 27.2137 73.3908V82.5128C27.2137 96.4328 38.6429 107.865 52.5592 107.865C66.4756 107.865 77.9048 96.4328 77.9048 82.5128V73.3908C77.9048 87.3108 66.4756 98.7429 52.5592 98.7429Z" fill="#92594D"/>
<path d="M35.9188 75.6417C36.1557 84.6453 43.4988 91.8718 52.5592 91.8718C61.6197 91.8718 68.9628 84.6453 69.1996 75.6417H35.9188Z" fill="white"/>
<path d="M43.2619 64.3873H35.8004C34.083 64.3873 32.721 62.9656 32.721 61.3071C32.721 59.5893 34.1423 58.2269 35.8004 58.2269H43.2619C44.9792 58.2269 46.3413 59.6485 46.3413 61.3071C46.3413 62.9656 44.9792 64.3873 43.2619 64.3873Z" fill="#79483E"/>
<path d="M43.2619 60.004H35.8004C34.083 60.004 32.721 58.5823 32.721 56.9238C32.721 55.206 34.1422 53.8436 35.8004 53.8436H43.2619C44.9792 53.8436 46.3413 55.2652 46.3413 56.9238C46.3413 58.6416 44.9792 60.004 43.2619 60.004Z" fill="#002334"/>
<path d="M69.3181 64.3873H61.8565C60.1392 64.3873 58.7772 62.9656 58.7772 61.3071C58.7772 59.5893 60.1984 58.2269 61.8565 58.2269H69.3181C71.0354 58.2269 72.3974 59.6485 72.3974 61.3071C72.4567 62.9656 71.0354 64.3873 69.3181 64.3873Z" fill="#79483E"/>
<path d="M69.3181 60.004H61.8565C60.1392 60.004 58.7772 58.5823 58.7772 56.9238C58.7772 55.206 60.1984 53.8436 61.8565 53.8436H69.3181C71.0354 53.8436 72.3974 55.2652 72.3974 56.9238C72.4567 58.6416 71.0354 60.004 69.3181 60.004Z" fill="#002334"/>
<path d="M39.3535 72.0284C38.1691 72.0284 37.2216 71.0807 37.2216 69.896V67.7636C37.2216 66.5789 38.1691 65.6312 39.3535 65.6312C40.5378 65.6312 41.4853 66.5789 41.4853 67.7636V69.896C41.4853 71.0807 40.5378 72.0284 39.3535 72.0284Z" fill="#002334"/>
<path d="M65.765 72.0284C64.5806 72.0284 63.6331 71.0807 63.6331 69.896V67.7636C63.6331 66.5789 64.5806 65.6312 65.765 65.6312C66.9493 65.6312 67.8968 66.5789 67.8968 67.7636V69.896C67.8968 71.0807 66.9493 72.0284 65.765 72.0284Z" fill="#002334"/>
</svg>
